<?xml version="1.0" standalone="no"?>
<!DOCTYPE svg PUBLIC "-//W3C//DTD SVG 20010904//EN"
 "http://www.w3.org/TR/2001/REC-SVG-20010904/DTD/svg10.dtd">
<svg version="1.0" xmlns="http://www.w3.org/2000/svg"
 width="1920.000000pt" height="1280.000000pt" viewBox="0 0 1920.000000 1280.000000"
 preserveAspectRatio="xMidYMid meet">

<g transform="translate(0.000000,1280.000000) scale(0.100000,-0.100000)" fill="#0808a7" fill-opacity="0.2" stroke="#106E34" stroke-width="6" stroke-opacity="0.15">
<path d="M9800 12350 c-190 -4 -387 -13 -439 -19 -175 -22 -195 -58 -72 -130
126 -75 338 -285 534 -528 38 -48 123 -169 188 -268 65 -99 135 -205 157 -235
l38 -55 -106 3 c-364 12 -1338 -240 -1560 -403 -54 -39 -71 -75 -49 -101 11
-14 28 -16 105 -11 117 7 252 51 343 112 78 52 110 56 211 25 78 -24 154 -26
203 -5 57 24 90 18 181 -30 95 -50 123 -54 187 -26 121 54 393 53 561 -1 l68
-22 81 24 c49 14 83 19 87 13 4 -5 28 -43 54 -84 l46 -74 -10 -65 c-17 -110
-44 -144 -227 -295 -106 -87 -131 -99 -281 -140 -165 -44 -247 -81 -291 -131
-138 -155 -226 -212 -343 -221 -81 -7 -107 0 -150 38 -44 38 -70 113 -64 180
5 46 17 74 87 205 62 116 51 174 -52 271 -170 161 -321 205 -502 147 -63 -20
-115 -28 -240 -35 -206 -12 -239 -25 -211 -80 27 -56 238 -128 331 -115 25 4
47 11 50 17 11 17 68 9 111 -16 80 -47 136 -145 120 -209 -3 -14 -38 -59 -76
-100 -39 -42 -70 -81 -70 -88 0 -39 -22 -86 -46 -96 -37 -18 -149 -15 -187 4
-47 24 -85 63 -97 100 -15 45 -7 54 50 54 54 0 80 22 80 68 0 55 -101 110
-175 96 -80 -15 -114 -59 -131 -169 -7 -45 -69 -115 -103 -115 -28 0 -27 14 8
125 41 127 48 187 26 221 -15 23 -22 26 -56 21 -48 -6 -97 -40 -105 -73 -4
-14 -1 -45 6 -69 32 -116 -1 -148 -230 -230 -229 -81 -290 -126 -290 -214 0
-88 100 -210 216 -263 37 -17 67 -23 124 -23 98 0 139 22 222 117 107 123 215
228 252 243 56 24 81 19 133 -27 121 -105 246 -115 355 -28 20 17 41 30 47 30
15 0 32 -73 25 -111 -3 -19 -20 -74 -36 -124 -29 -84 -31 -102 -35 -260 -2
-93 -6 -180 -9 -193 -6 -31 -29 -24 -129 43 -102 67 -117 75 -153 75 -37 0
-58 -41 -48 -100 9 -59 -8 -82 -103 -144 -92 -59 -169 -132 -220 -208 -38 -57
-93 -101 -226 -178 -135 -79 -173 -114 -220 -201 -25 -47 -66 -100 -111 -144
-106 -105 -142 -155 -209 -288 -33 -66 -64 -120 -70 -120 -5 1 -27 41 -47 89
-44 103 -90 154 -138 154 -17 0 -74 -10 -126 -22 -88 -20 -95 -20 -107 -5 -20
28 -119 39 -309 35 -206 -4 -192 -13 -153 107 91 279 469 1078 632 1338 163
258 347 490 578 725 372 380 759 653 1146 806 188 75 352 112 724 165 244 35
295 53 295 106 0 27 -109 196 -197 305 -270 334 -632 567 -991 636 -104 20
-317 23 -412 5 -165 -32 -342 -108 -485 -209 -124 -89 -258 -229 -402 -422
-431 -577 -1132 -1721 -1234 -2013 -26 -73 7 -102 328 -293 116 -69 228 -140
248 -157 l37 -32 -75 -160 c-151 -324 -259 -591 -320 -795 l-35 -115 -94 -7
c-51 -4 -381 -12 -733 -17 -694 -12 -964 -23 -1150 -47 -263 -33 -260 -88 14
-221 86 -41 228 -111 317 -153 231 -113 250 -140 200 -282 -29 -83 -87 -179
-276 -463 -191 -286 -260 -401 -336 -560 -155 -324 -191 -584 -113 -819 25
-74 63 -142 377 -676 481 -816 614 -1054 804 -1430 76 -151 138 -276 138 -277
0 -2 -1160 -3 -2577 -3 -1451 0 -2584 -4 -2592 -9 -7 -5 -11 -13 -8 -18 4 -6
812 -8 2149 -5 1179 3 2349 1 2600 -3 l458 -7 76 -116 c133 -203 261 -360 315
-388 26 -13 30 -13 35 1 4 8 1 34 -6 58 -6 23 -14 133 -17 244 l-6 203 112 0
111 0 -7 -57 c-5 -32 -8 -143 -7 -248 1 -205 15 -305 70 -471 117 -358 395
-674 735 -833 296 -139 493 -157 1654 -148 861 6 1328 21 1363 44 13 8 31 31
40 51 26 58 21 302 -14 617 -24 225 -28 301 -28 562 l-1 303 35 -7 c48 -9 606
-9 653 0 34 7 37 6 37 -14 0 -52 657 -1214 962 -1702 236 -378 383 -573 462
-614 26 -14 31 -13 55 4 72 53 95 180 85 484 -6 169 -4 208 7 214 7 5 304 12
659 17 355 4 686 11 735 17 192 21 416 100 550 195 83 60 185 171 254 276 67
101 243 402 539 920 l208 365 1880 2 c1568 1 1879 3 1879 15 0 11 -309 13
-1867 16 -1028 1 -1868 4 -1868 7 0 2 78 143 173 312 238 422 475 849 553 999
55 103 64 127 54 139 -17 21 -38 13 -145 -55 -49 -31 -113 -69 -142 -83 -96
-49 -341 -109 -583 -143 -96 -13 -241 -16 -885 -19 -423 -2 -789 0 -813 4
l-43 6 107 120 c109 122 276 340 349 453 22 34 42 62 45 62 4 0 12 -16 19 -36
33 -91 139 -244 216 -312 55 -48 73 -52 285 -52 548 0 1058 80 1313 206 98 48
262 171 366 275 458 455 501 1042 132 1804 -93 192 -83 174 -451 795 -416 703
-617 1027 -678 1093 -15 16 -36 27 -51 27 -82 -1 -533 -303 -598 -401 l-25
-38 25 -98 c93 -354 151 -781 151 -1108 1 -224 -11 -344 -64 -662 -57 -337
-127 -565 -249 -808 -68 -134 -201 -359 -208 -352 -1 2 31 75 71 163 109 234
141 319 202 528 128 441 170 795 161 1347 -4 244 -9 329 -25 431 -82 497 -291
1055 -574 1535 -26 45 -48 86 -48 92 0 5 52 100 115 211 369 643 726 1328 829
1588 66 165 39 197 -104 121 -43 -23 -159 -101 -257 -173 -364 -266 -441 -316
-482 -316 -39 0 -103 91 -341 485 -216 357 -328 531 -441 689 -105 146 -261
315 -325 352 -75 44 -309 87 -649 119 -575 53 -1612 82 -2365 65z m1310 -40
c940 -31 1523 -90 1679 -170 72 -36 210 -187 348 -380 91 -128 192 -286 373
-585 270 -445 330 -534 383 -562 28 -14 33 -13 101 21 39 19 130 78 201 130
341 248 440 317 500 347 36 18 68 29 72 26 18 -19 -115 -314 -328 -727 -200
-388 -626 -1151 -645 -1157 -5 -1 -35 38 -66 87 -189 291 -467 608 -704 801
-112 92 -298 221 -416 290 -60 35 -162 98 -226 140 -250 161 -371 219 -657
312 -478 154 -1131 273 -1397 252 l-87 -6 -36 48 c-20 26 -94 136 -165 243
-166 254 -267 379 -469 581 -143 142 -206 195 -307 255 -10 7 -16 14 -13 18
14 15 137 29 309 36 283 11 1219 11 1550 0z m-2467 -185 c360 -63 717 -292
991 -635 83 -104 189 -268 183 -283 -8 -21 -70 -35 -322 -73 -449 -66 -616
-115 -910 -268 -534 -276 -1068 -773 -1450 -1351 -122 -184 -196 -321 -364
-670 -172 -360 -271 -592 -325 -757 -40 -124 -42 -128 -69 -128 -27 0 -28 2
-21 33 29 136 184 530 330 842 46 99 84 190 84 202 0 31 -66 81 -231 178 -203
118 -310 186 -351 223 -35 31 -36 34 -26 70 55 199 689 1249 1121 1857 269
379 440 548 672 663 204 101 458 137 688 97z m2127 -1055 c592 -89 1150 -257
1448 -437 l97 -58 -61 -5 c-65 -5 -87 -18 -108 -59 -28 -56 -28 -106 0 -273 6
-31 3 -38 -20 -54 -25 -16 -36 -16 -144 -4 -215 25 -309 14 -370 -43 -13 -12
-41 -59 -62 -105 -54 -115 -110 -167 -259 -239 -64 -31 -128 -65 -143 -75
l-27 -18 -44 82 c-186 346 -271 502 -344 625 -81 140 -83 144 -83 208 0 69
-17 118 -45 129 -9 3 -32 6 -50 6 -30 0 -38 8 -101 97 -38 54 -100 130 -139
170 -60 62 -67 73 -50 77 51 12 369 -3 505 -24z m-574 4 c44 -21 152 -137 232
-249 l63 -89 -33 -14 c-61 -25 -127 -26 -198 -2 -128 44 -462 37 -557 -11 -20
-10 -44 -19 -52 -19 -8 0 -54 20 -102 45 -97 50 -148 57 -212 30 -46 -19 -91
-19 -153 0 -132 41 -176 39 -251 -15 -83 -60 -218 -106 -339 -117 -84 -7 -98
4 -52 42 124 105 596 259 1088 355 305 59 501 75 566 44z m412 -387 c7 -15 12
-40 10 -55 -3 -26 -4 -25 -35 24 -39 60 -40 66 -11 62 13 -2 29 -15 36 -31z
m1733 -163 c82 -24 134 -55 251 -146 411 -322 770 -733 1057 -1210 l52 -87
-102 -163 c-122 -196 -206 -316 -234 -331 -22 -13 -1487 -24 -1551 -13 -32 7
-34 9 -34 47 0 83 -71 166 -164 194 -144 43 -274 -17 -310 -143 -26 -93 -4
-87 -262 -74 -125 6 -229 14 -232 17 -9 9 53 90 117 150 35 33 98 94 140 135
43 42 113 97 160 125 84 51 151 113 151 140 0 8 -54 123 -120 255 -66 132
-120 244 -120 249 0 6 62 41 138 78 118 58 147 77 208 138 55 54 76 83 93 130
27 72 60 109 118 131 44 17 80 17 340 -2 90 -7 92 -6 118 20 24 24 26 32 21
74 -3 26 -8 91 -12 144 l-7 97 31 30 c36 36 70 39 153 15z m-3313 -19 c104
-31 292 -183 311 -252 12 -43 5 -66 -63 -195 -52 -100 -56 -113 -56 -175 0
-168 113 -265 272 -233 116 23 239 99 304 190 58 81 93 98 401 190 87 26 109
37 155 78 29 27 81 69 114 95 111 84 174 176 174 254 0 13 3 23 8 23 9 0 201
-339 338 -598 96 -183 106 -205 95 -228 -6 -14 -11 -38 -11 -53 0 -44 -34 -77
-109 -106 -38 -14 -81 -37 -94 -49 -50 -46 -60 -160 -19 -215 39 -53 63 -56
229 -35 46 6 52 4 63 -16 16 -30 7 -98 -21 -151 -19 -39 -31 -46 -227 -141
-295 -143 -392 -203 -392 -245 0 -21 61 -43 144 -50 41 -3 79 -9 86 -13 8 -5
5 -21 -8 -56 -65 -165 -24 -242 123 -231 143 11 299 88 398 197 l54 60 135 0
c74 0 176 -3 226 -6 l92 -7 0 -41 c1 -57 18 -127 37 -148 28 -31 73 -22 154
30 63 40 81 47 125 47 44 0 58 -5 99 -37 27 -21 54 -38 61 -38 14 0 40 31 66
79 19 35 38 41 38 11 0 -40 27 -86 56 -98 16 -6 101 -12 189 -14 111 -3 168
-8 185 -17 49 -27 51 -50 10 -113 -61 -92 -148 -129 -305 -129 -124 1 -220 17
-495 85 -512 128 -709 148 -939 95 -162 -37 -303 -129 -403 -261 -71 -94 -94
-135 -161 -288 -30 -69 -80 -178 -111 -243 -93 -198 -119 -278 -120 -382 -1
-74 3 -99 22 -139 80 -174 319 -316 649 -388 99 -21 247 -27 443 -17 157 8
189 -37 201 -275 8 -173 11 -186 85 -347 71 -156 87 -225 78 -343 -12 -171 24
-483 86 -732 l30 -122 -191 -303 c-106 -167 -284 -450 -397 -629 -289 -457
-486 -754 -535 -804 -39 -39 -48 -44 -117 -55 -122 -18 -305 -31 -455 -30
-386 1 -726 68 -1135 222 -271 103 -694 293 -754 339 -18 14 -15 14 30 5 90
-18 144 12 144 82 0 22 -7 73 -16 113 -10 44 -17 123 -18 198 -2 205 29 260
231 422 197 158 263 244 263 347 0 45 55 123 177 257 236 257 276 335 253 489
-16 107 0 179 79 359 69 155 87 217 77 268 -9 49 -140 204 -240 284 -99 80
-244 152 -388 194 -59 16 -128 39 -154 50 -63 28 -182 107 -349 234 -77 59
-178 126 -224 149 -84 42 -85 42 -225 48 -78 4 -196 15 -264 24 l-123 18 -83
141 c-45 78 -148 254 -228 391 -80 138 -159 272 -177 299 -17 28 -31 53 -31
57 0 4 30 14 68 22 128 30 127 30 159 3 30 -26 36 -35 88 -153 50 -112 74
-101 166 78 65 126 81 149 178 252 63 67 119 137 139 174 37 71 89 119 182
171 149 82 208 133 308 265 30 40 72 76 142 122 130 85 140 99 140 186 0 89 8
89 136 4 53 -36 107 -68 120 -71 30 -8 61 3 69 24 4 9 8 96 10 192 2 167 4
179 34 266 48 140 53 231 15 269 -24 23 -50 18 -105 -20 -113 -78 -197 -69
-309 30 -44 39 -57 45 -96 45 -82 0 -162 -59 -292 -217 -92 -111 -126 -137
-196 -153 -118 -26 -269 60 -336 190 -54 106 -3 152 282 256 142 51 200 87
225 140 16 32 16 39 1 96 -20 73 -13 93 40 115 33 14 37 14 49 -3 16 -22 11
-56 -33 -195 -35 -115 -35 -146 2 -155 79 -20 153 59 169 178 5 36 13 53 36
73 63 52 195 22 187 -44 -3 -24 -7 -26 -53 -29 -66 -4 -78 -16 -72 -70 13
-113 166 -197 296 -162 57 15 101 58 101 99 0 23 16 48 70 108 94 105 105 148
57 239 -31 59 -108 124 -168 143 -30 10 -44 9 -78 -5 -53 -21 -152 -15 -233
14 -59 21 -118 57 -118 72 0 13 40 20 115 20 118 1 247 18 325 44 87 29 155
32 228 11z m3917 -344 c125 -95 404 -372 517 -514 90 -113 221 -295 277 -385
l33 -53 -23 -44 c-13 -25 -26 -45 -29 -45 -3 0 -18 23 -33 51 -49 87 -205 317
-300 442 -159 212 -348 419 -557 612 -105 97 -81 83 115 -64z m-1705 -773
c127 -250 126 -232 19 -303 -84 -57 -105 -65 -94 -39 17 42 18 123 1 149 -27
40 -57 47 -138 30 -127 -27 -168 -2 -168 103 0 58 3 67 29 90 15 15 57 38 92
51 73 28 119 68 119 104 0 14 3 33 6 42 9 22 5 29 134 -227z m2631 -343 c253
-443 454 -982 528 -1422 42 -246 52 -545 31 -893 -27 -438 -114 -855 -247
-1190 -62 -157 -217 -485 -291 -617 -115 -203 -306 -464 -493 -672 l-103 -114
-325 7 c-471 9 -749 29 -772 54 -3 4 -9 67 -12 140 l-6 134 31 16 c109 60 227
155 419 339 158 152 194 220 211 402 5 64 16 128 24 143 7 14 49 62 92 105 43
44 90 102 103 129 23 47 24 56 21 224 -2 124 2 200 13 262 25 145 46 180 208
346 246 255 306 381 216 456 -41 35 -89 46 -201 46 -115 0 -90 -18 -270 204
-216 267 -322 447 -323 546 l0 55 39 3 c74 6 201 -77 253 -165 16 -28 39 -100
59 -191 55 -238 110 -322 204 -309 49 6 239 99 341 166 160 106 229 188 229
274 0 91 -56 146 -214 209 -179 73 -208 97 -169 140 16 18 26 19 78 14 33 -3
118 -27 190 -52 364 -128 381 -133 433 -134 39 0 57 5 72 20 25 25 25 47 0
140 -104 377 -270 798 -436 1102 l-65 119 26 46 c15 25 31 41 35 36 4 -4 36
-57 71 -118z m-33 -227 c156 -315 268 -605 358 -931 33 -118 35 -131 20 -145
-24 -24 -111 -5 -296 63 -325 120 -426 140 -475 90 -24 -24 -31 -57 -19 -90 8
-19 65 -49 184 -97 190 -77 243 -145 191 -246 -40 -79 -192 -193 -386 -290
-126 -62 -151 -68 -191 -43 -50 31 -76 100 -138 366 -21 90 -71 163 -150 220
-56 39 -137 75 -171 75 -32 0 -65 -25 -75 -56 -20 -60 23 -172 128 -334 67
-105 206 -286 304 -400 l74 -85 119 -5 c129 -6 171 -20 201 -64 38 -58 -31
-169 -232 -376 -211 -217 -224 -248 -233 -590 -7 -276 -2 -260 -131 -395 -94
-99 -110 -133 -110 -233 0 -118 -37 -221 -113 -312 -45 -55 -292 -279 -377
-342 -57 -43 -114 -78 -128 -78 -6 0 -12 98 -15 273 -2 149 -9 286 -14 302 -6
18 -17 31 -29 33 -22 3 -82 -74 -204 -265 -36 -56 -68 -102 -71 -102 -7 -1
-33 92 -54 199 -36 172 -48 288 -55 525 -8 274 -8 276 -82 435 -72 155 -79
181 -87 350 -6 129 -11 162 -29 196 -49 95 -108 114 -287 94 -304 -33 -728 98
-902 281 -105 111 -124 240 -59 413 29 78 189 428 257 561 86 172 187 278 334
350 120 60 177 70 380 70 208 0 252 -8 675 -110 375 -92 497 -108 625 -84 74
14 129 41 178 88 74 70 97 149 55 188 -35 33 -91 42 -254 45 -109 2 -155 7
-167 17 -9 7 -20 36 -23 63 -4 29 -13 52 -21 55 -25 10 -62 -15 -82 -56 -12
-22 -25 -42 -31 -46 -5 -3 -33 10 -61 30 -42 28 -60 35 -101 35 -53 0 -85 -13
-164 -67 -29 -19 -60 -33 -70 -31 -25 4 -41 41 -49 115 l-7 62 796 3 795 3 36
35 c37 35 156 209 255 373 29 48 57 87 61 87 4 0 57 -100 117 -222z m-2788
103 c0 -5 -33 -35 -73 -67 -76 -60 -140 -129 -184 -196 -23 -34 -30 -38 -67
-38 -54 0 -169 19 -179 29 -14 14 47 50 278 168 121 62 221 112 223 113 1 0 2
-4 2 -9z m568 -143 c72 -22 132 -99 132 -169 l0 -31 -209 4 c-115 1 -212 6
-216 10 -8 8 20 104 40 134 40 62 149 84 253 52z m-555 -214 c103 -4 187 -10
187 -13 0 -4 -24 -30 -52 -58 -103 -101 -247 -166 -371 -167 -57 -1 -71 2 -84
19 -20 28 -13 116 17 184 l23 53 46 -6 c25 -3 130 -9 234 -12z m3964 -31 c35
-43 210 -314 317 -491 228 -377 699 -1178 757 -1287 335 -633 382 -1191 136
-1602 -59 -100 -158 -223 -236 -295 -91 -84 -252 -203 -323 -239 -137 -69
-375 -131 -633 -163 -251 -32 -657 -53 -806 -41 l-93 7 -54 52 c-95 89 -225
309 -208 353 3 7 57 89 119 181 355 521 461 805 558 1502 31 216 33 608 6 825
-25 193 -71 456 -108 616 -45 192 -45 190 -14 228 60 70 310 247 468 330 88
46 94 48 114 24z m-8144 -609 c15 -3 27 -9 27 -13 0 -9 -168 -47 -274 -62
-121 -16 -196 5 -196 56 0 24 1 24 108 28 116 4 291 -1 335 -9z m-474 -34 c6
-22 23 -47 36 -56 55 -36 203 -27 418 25 l77 18 79 -131 c102 -171 431 -736
431 -742 0 -2 -35 -4 -78 -4 -99 0 -167 -20 -219 -65 -52 -44 -79 -100 -93
-190 -17 -110 -46 -185 -111 -286 -65 -102 -82 -149 -73 -200 20 -101 133
-252 373 -497 44 -46 81 -85 81 -87 0 -3 -24 -42 -53 -87 -141 -219 -345 -602
-387 -723 -11 -32 -20 -70 -20 -85 0 -84 321 -482 669 -830 219 -219 360 -334
489 -399 43 -22 95 -53 117 -71 66 -52 161 -104 366 -198 303 -139 566 -240
829 -317 l115 -34 -170 5 c-143 5 -188 10 -280 34 -444 116 -876 329 -1210
597 -131 106 -360 341 -459 473 -45 61 -90 110 -106 117 -82 36 -384 42 -447
10 -68 -36 -214 -223 -384 -494 -140 -222 -219 -400 -265 -596 l-18 -78 -110
3 -111 3 3 25 c10 69 77 237 173 430 120 240 242 455 504 890 237 394 265 445
265 477 0 16 -35 93 -81 178 -307 570 -410 871 -479 1400 -32 248 -41 682 -20
936 22 266 54 514 75 577 3 6 17 12 33 12 25 0 30 -5 41 -40z m-112 7 c-15
-56 -38 -214 -51 -347 -43 -410 -44 -745 -6 -1080 63 -555 174 -899 461 -1426
60 -110 109 -206 109 -213 0 -20 -22 -59 -263 -461 -437 -730 -632 -1107 -677
-1312 l-13 -58 -57 0 c-31 0 -112 3 -178 7 l-122 6 -127 251 c-203 403 -342
652 -816 1456 -154 261 -301 516 -328 565 -130 244 -127 482 12 820 67 164
156 317 386 665 223 338 283 450 290 543 4 54 2 67 -19 97 -31 45 -124 102
-296 180 -323 147 -422 201 -422 230 0 53 665 87 1944 98 l178 2 -5 -23z
m1152 -933 c27 -6 41 -23 113 -143 45 -75 202 -329 348 -566 355 -571 460
-759 437 -782 -16 -16 -141 45 -451 221 -264 149 -375 188 -430 152 -14 -9
-44 -43 -68 -76 -23 -33 -45 -60 -49 -60 -10 0 -224 229 -301 322 -35 42 -79
102 -98 134 -30 50 -35 67 -35 119 0 57 4 67 52 141 72 109 102 180 119 277
23 138 55 196 124 232 58 30 167 43 239 29z m401 -42 c164 -8 166 -8 240 -45
41 -20 161 -101 265 -180 219 -164 306 -212 460 -257 257 -73 403 -168 556
-358 l61 -76 -4 -60 c-3 -43 -16 -87 -42 -146 -94 -210 -109 -258 -110 -355 0
-49 1 -116 3 -149 4 -102 -45 -180 -265 -418 -121 -130 -162 -196 -171 -269
-11 -103 -55 -158 -238 -304 -136 -108 -183 -158 -219 -235 -27 -58 -31 -77
-34 -180 -3 -88 1 -142 18 -233 11 -65 18 -127 15 -138 -11 -33 -49 -41 -118
-25 -149 35 -200 80 -239 210 -11 39 -43 127 -70 195 -90 223 -99 284 -164
1006 -42 479 -45 487 -224 620 -36 27 -93 73 -128 103 l-63 54 19 30 c10 16
36 50 57 75 36 43 39 45 79 39 57 -9 210 -84 459 -225 232 -131 304 -164 351
-159 28 3 31 7 34 38 5 65 -52 167 -478 855 -314 507 -370 600 -370 612 0 6
32 4 78 -4 42 -7 151 -17 242 -21z m-382 -1358 c192 -153 219 -179 236 -231
23 -72 32 -148 76 -628 51 -563 57 -598 151 -827 27 -67 56 -148 64 -182 9
-33 23 -71 31 -84 9 -13 14 -26 12 -28 -7 -7 -150 92 -232 160 -277 231 -726
731 -877 975 -31 52 -32 55 -20 100 16 59 117 269 210 436 72 129 233 395 238
395 2 0 52 -39 111 -86z m4679 -787 c7 -301 10 -287 -67 -287 -79 0 -141 52
-186 157 l-27 62 128 193 c118 177 129 190 137 168 5 -14 12 -146 15 -293z
m-213 -255 c47 -50 83 -65 152 -65 l61 0 6 -128 c4 -71 11 -138 17 -148 20
-38 216 -57 665 -66 149 -3 303 -8 344 -11 l73 -6 -38 -40 c-55 -56 -214 -195
-325 -284 -353 -281 -830 -542 -1261 -689 -217 -75 -527 -144 -782 -176 -96
-11 -101 -14 -144 -53 l-45 -41 -374 0 c-359 0 -375 1 -389 19 -8 11 -14 22
-14 25 0 3 93 4 206 3 204 -4 406 7 533 29 58 10 71 17 108 55 23 23 107 141
186 261 141 214 240 368 702 1101 l229 363 29 -58 c16 -32 43 -73 61 -91z
m3986 -128 c0 -11 -428 -784 -701 -1268 l-84 -148 -1710 3 c-1274 2 -1729 -1
-1784 -9 -40 -7 -155 -28 -256 -47 -190 -36 -480 -79 -600 -90 -65 -6 -69 -5
-50 10 24 19 28 20 175 40 301 41 627 124 870 220 543 214 996 499 1416 890
l111 104 854 4 c810 3 861 5 984 25 336 54 495 103 650 201 107 68 125 78 125
65z m-8862 -244 c150 -12 172 -20 212 -78 144 -202 385 -447 593 -601 264
-194 569 -351 901 -463 85 -29 154 -53 152 -55 -1 -2 -139 1 -307 7 -371 12
-1189 27 -1916 36 l-543 7 6 26 c45 200 112 365 227 556 140 231 279 425 366
509 47 47 54 50 118 56 37 4 70 8 73 8 3 1 56 -3 118 -8z m-1196 -1392 c2
-117 8 -222 13 -233 15 -36 -63 45 -139 145 -60 78 -169 235 -200 288 -6 9 28
12 158 12 l164 0 4 -212z m1343 197 c544 -7 1260 -23 1612 -35 247 -9 286 -13
445 -45 158 -31 378 -64 551 -81 l67 -6 1 -37 c1 -20 2 -166 3 -326 2 -240 7
-333 29 -540 31 -278 37 -497 15 -560 -11 -33 -18 -40 -48 -46 -81 -16 -894
-34 -1545 -34 -971 0 -1107 12 -1365 123 -180 76 -317 171 -453 311 -242 249
-378 574 -394 941 -5 112 9 320 24 343 3 5 145 6 317 3 171 -3 505 -8 741 -11z
m7881 -8 l32 -2 -254 -444 c-445 -778 -501 -868 -608 -980 -131 -136 -234
-195 -449 -257 -157 -45 -266 -52 -1033 -62 -445 -5 -575 -10 -587 -20 -13
-11 -16 -54 -19 -300 -3 -283 -3 -288 -28 -336 -34 -68 -50 -76 -90 -44 -126
99 -492 672 -967 1513 -262 463 -403 726 -403 749 0 22 5 25 58 31 254 29 537
72 743 114 104 21 252 40 344 44 74 3 3218 -3 3261 -6z m-5377 -67 c95 -7 117
-11 134 -29 l21 -21 -41 0 c-54 0 -349 38 -433 55 -64 14 -63 14 70 9 74 -3
186 -9 249 -14z"/>
</g>
</svg>
